[img]http://img4.imageshack.us/img4/6765/immortlas.jpg[/img]
[code]
Immortals 2011 R5 READNFO XviD AC3-26K

Imdb: 
http://www.imdb.com/title/tt1253864/

Plot:
Theseus is a mortal man chosen by Zeus to lead the fight against the ruthless King Hyperion, who is on a 

rampage across Greece to obtain a weapon that can destroy humanity.

Sources:
RUSSIAN DVD5! THNXS
ZCJM THNXS FOR AUDIO !

Notes:
Encoded the video from the dvd5 vob files!!
then synced the audio to the synced video! cleared the audio up a bit more :) so sounds good!


Greetz:
Xtreme 

Encode|FYA|ILLUMANTI|CM8|RX|VISION|HDSCENE|NIGHTMAREZ|xTriLL|DTRG|CRYS|REMIXHD|BIDA|RX|REFILL|INSPiRAL|SI

C
To all the people who have helped me :P you know who you are

Anything to offer email us @: 26k@hushmail.me

Video
ID                                       : 0
Format                                   : MPEG-4 Visual
Format profile                           : Advanced Simple@L5
Format settings, BVOP                    : 2
Format settings, QPel                    : No
Format settings, GMC                     : No warppoints
Format settings, Matrix                  : Default (H.263)
Codec ID                                 : DX50
Codec ID/Hint                            : DivX 5
Duration                                 : 1h 45mn
Bit rate                                 : 1 992 Kbps
Width                                    : 720 pixels
Height                                   : 390 pixels
Display aspect ratio                     : 16:9
Frame rate                               : 25.000 fps
Color space                              : YUV
Chroma subsampling                       : 4:2:0
Bit depth                                : 8 bits
Scan type                                : Progressive
Compression mode                         : Lossy
Bits/(Pixel*Frame)                       : 0.284
Stream size                              : 1.47 GiB (94%)
Writing library                          : XviD 1.2.1 (UTC 2008-12-04)

Audio
ID                                       : 1
Format                                   : AC-3
Format/Info                              : Audio Coding 3
Mode extension                           : CM (complete main)
Codec ID                                 : 2000
Duration                                 : 1h 45mn
Bit rate mode                            : Constant
Bit rate                                 : 128 Kbps
Channel(s)                               : 2 channels
Channel positions                        : Front: L R
Sampling rate                            : 44.1 KHz
Bit depth                                : 16 bits
Compression mode                         : Lossy
Stream size                              : 97.0 MiB (6%)
Alignment                                : Aligned on interleaves
Interleave, duration                     : 35 ms (0.87 video frame)

[/code]
Screens:
[img]http://img820.imageshack.us/img820/8712/vlcsnap2012011321h44m32.png[/img]
[img]http://img716.imageshack.us/img716/9544/vlcsnap2012011321h44m40.png[/img]
[img]http://img822.imageshack.us/img822/784/vlcsnap2012011321h44m45.png[/img]
[img]http://img12.imageshack.us/img12/9030/vlcsnap2012011321h45m02.png[/img]
[img]http://img35.imageshack.us/img35/7580/vlcsnap2012011321h45m07.png[/img]

[img]http://img851.imageshack.us/img851/5503/26ks.jpg[/img]#
Thank you smallz for banner!